<?xml version="1.0" encoding="UTF-8"?>
<svg version="1.1" xmlns="http://www.w3.org/2000/svg" width="180" height="180">
<path d="M0 0 C59.4 0 118.8 0 180 0 C180 59.4 180 118.8 180 180 C120.6 180 61.2 180 0 180 C0 120.6 0 61.2 0 0 Z " fill="#000000" transform="translate(0,0)"/>
<path d="M0 0 C1.72648126 0.89455159 3.42630006 1.84219279 5.09765625 2.8359375 C6.53322876 3.68248901 6.53322876 3.68248901 7.99780273 4.54614258 C9.51482788 5.451427 9.51482788 5.451427 11.0625 6.375 C13.19998858 7.63762024 15.33802098 8.89932023 17.4765625 10.16015625 C18.55711914 10.79840332 19.63767578 11.43665039 20.75097656 12.09423828 C26.68637295 15.57573093 32.6742268 18.96523182 38.66235352 22.35498047 C39.48405029 22.82178223 40.30574707 23.28858398 41.15234375 23.76953125 C41.87413818 24.17792236 42.59593262 24.58631348 43.33959961 25.00708008 C45 26 45 26 46 27 C46.14013569 40.9294872 41.52563307 54.12149621 34.96630859 66.16992188 C33.93874772 68.11600483 32.98936066 70.08768129 32.05078125 72.078125 C28.19267384 80.22090253 24.14070009 87.30105444 18 94 C17.40960938 94.6703125 16.81921875 95.340625 16.2109375 96.03125 C10.28911143 102.38146349 3.12644608 107.1155819 -4 112 C-25.786882 102.15555702 -37.87053327 82.74168536 -47.18798828 61.79882812 C-47.8435675 60.34654078 -48.53882981 58.91220565 -49.24609375 57.484375 C-51.52841765 52.83092083 -52.93936508 48.00356186 -54.25 43 C-54.51345215 42.02051392 -54.51345215 42.02051392 -54.78222656 41.02124023 C-56.02914757 35.96869113 -56.18920969 31.18975155 -56 26 C-55.45923828 25.7097998 -54.91847656 25.41959961 -54.36132812 25.12060547 C-42.02904168 18.48670369 -29.83677189 11.65533916 -17.77148438 4.54638672 C-16.81306641 3.98193848 -15.85464844 3.41749023 -14.8671875 2.8359375 C-14.02269043 2.33626465 -13.17819336 1.8365918 -12.30810547 1.32177734 C-11.16559326 0.66749756 -11.16559326 0.66749756 -10 0 C-9.04504639 -0.64461182 -9.04504639 -0.64461182 -8.07080078 -1.30224609 C-4.90085777 -2.37035469 -3.01554491 -1.27972922 0 0 Z " fill="#C3C3C3" transform="translate(95,34)"/>
<path d="M0 0 C4.22406876 1.62477982 7.97088903 3.69005319 11.8125 6.0625 C17.97869432 9.8229005 24.21873697 13.41880134 30.54418945 16.90454102 C34.49909899 19.0985463 38.26927404 21.44195216 42 24 C41.22192385 45.78613222 26.28073989 71.5821622 10.75 86.125 C7.63531372 88.90378874 4.95410266 90.63990086 1 92 C1.763125 91.071875 2.52625 90.14375 3.3125 89.1875 C4.11494141 88.20910156 4.11494141 88.20910156 4.93359375 87.2109375 C7 85 7 85 9.84765625 82.7890625 C14.86461905 78.68486325 18.0796583 75.69851713 18.91796875 69.0546875 C19.00840926 67.26726305 19.05633701 65.47720044 19.0625 63.6875 C19.07482666 62.39743042 19.07482666 62.39743042 19.08740234 61.08129883 C18.78624314 54.50129057 16.74499853 52.37056327 12 48 C12.26726538 44.7226484 12.92741644 44.06343918 15.48046875 41.83203125 C19.94514563 36.813596 19.55310616 30.81391007 19.23046875 24.3359375 C17.82704421 14.88290741 9.28924982 8.43702898 2 3 C1.34 2.67 0.68 2.34 0 2 C1.21694144 6.61923547 3.66751354 8.63465703 7.1574707 11.60522461 C12.42183951 16.17325179 16.76335963 20.10996755 17.33544922 27.34448242 C17.27396362 32.95209947 16.57126236 37.32758827 12.5 41.5 C10.53125 43.03125 10.53125 43.03125 9 44 C5.83743275 42.52359743 3.87500455 40.96523276 2 38 C1.05118829 32.4119322 1.60555909 26.62234821 2 21 C1.34 21 0.68 21 0 21 C0 27.27 0 33.54 0 40 C-0.66 39.67 -1.32 39.34 -2 39 C-2 32.73 -2 26.46 -2 20 C-1.34 20 -0.68 20 0 20 C0 15.71 0 11.42 0 7 C-1.19625 8.03125 -2.3925 9.0625 -3.625 10.125 C-4.29789063 10.70507812 -4.97078125 11.28515625 -5.6640625 11.8828125 C-6.82035156 12.93082031 -6.82035156 12.93082031 -8 14 C-8.51828369 14.42240967 -9.03656738 14.84481934 -9.57055664 15.2800293 C-12.62175876 17.95343305 -14.35777849 20.00232445 -15.04296875 24.06640625 C-15.14110572 25.56266345 -15.1875 27.06302793 -15.1875 28.5625 C-15.19394531 29.34737793 -15.20039062 30.13225586 -15.20703125 30.94091797 C-14.84033894 37.5642979 -12.25429826 41.16638435 -7.5 45.625 C-5.38346228 47.50664256 -3.23814996 49.2598999 -1 51 C-0.67 47.7 -0.34 44.4 0 41 C1.63268399 42.35478033 3.25680868 43.72082102 4.84375 45.12890625 C7.00605613 47.05199157 7.00605613 47.05199157 9.46875 48.83984375 C13.96978071 52.55034533 16.53483019 55.73861991 17.27807617 61.68603516 C17.54597885 67.39094513 16.81854334 71.42360313 13.140625 75.921875 C9.99911693 79.28464127 6.67979213 82.237791 3 85 C2.34 85 1.68 85 1 85 C1 74.77 1 64.54 1 54 C0.67 59.94 0.34 65.88 0 72 C-0.33 72 -0.66 72 -1 72 C-0.99097656 70.91460937 -0.98195313 69.82921875 -0.97265625 68.7109375 C-0.81828757 60.76361065 -0.81828757 60.76361065 -3.625 53.6015625 C-5.71126014 51.78838665 -5.71126014 51.78838665 -9 50 C-12.31665302 52.68744875 -14.28903134 54.74951644 -14.9453125 58.96875 C-15.05047899 60.47669099 -15.10844942 61.98848682 -15.125 63.5 C-15.13595703 64.29229004 -15.14691406 65.08458008 -15.15820312 65.90087891 C-14.8785872 71.5791449 -13.29939682 74.67476836 -9.33935547 78.70898438 C-7.54936379 80.33028823 -5.71204796 81.86857335 -3.84375 83.3984375 C-2.9053125 84.25695312 -1.966875 85.11546875 -1 86 C-1 87.32 -1 88.64 -1 90 C-8.20633289 86.60588426 -14.93205853 80.88992717 -19 74 C-20.04144402 70.46320128 -20.27564322 67.1757526 -20.25 63.5 C-20.24468262 62.22793701 -20.24468262 62.22793701 -20.23925781 60.93017578 C-19.9395197 56.35144898 -19.27158038 53.81878182 -15.859375 50.65625 C-14.44398437 49.34140625 -14.44398437 49.34140625 -13 48 C-13.26912347 44.72881214 -13.93175167 44.06025723 -16.46875 41.8203125 C-20.93492087 36.84411594 -20.77842303 31.00959484 -20.4375 24.5390625 C-18.67191578 13.88896792 -7.90679924 6.46799199 0 0 Z " fill="#E3E3E3" transform="translate(90,42)"/>
<path d="M0 0 C1.72648126 0.89455159 3.42630006 1.84219279 5.09765625 2.8359375 C6.53322876 3.68248901 6.53322876 3.68248901 7.99780273 4.54614258 C9.51482788 5.451427 9.51482788 5.451427 11.0625 6.375 C13.19998858 7.63762024 15.33802098 8.89932023 17.4765625 10.16015625 C18.55711914 10.79840332 19.63767578 11.43665039 20.75097656 12.09423828 C26.68637295 15.57573093 32.6742268 18.96523182 38.66235352 22.35498047 C39.48405029 22.82178223 40.30574707 23.28858398 41.15234375 23.76953125 C41.87413818 24.17792236 42.59593262 24.58631348 43.33959961 25.00708008 C45 26 45 26 46 27 C46.14013569 40.9294872 41.52563307 54.12149621 34.96630859 66.16992188 C33.93874772 68.11600483 32.98936066 70.08768129 32.05078125 72.078125 C28.19267384 80.22090253 24.14070009 87.30105444 18 94 C17.40960938 94.6703125 16.81921875 95.340625 16.2109375 96.03125 C10.28911143 102.38146349 3.12644608 107.1155819 -4 112 C-25.786882 102.15555702 -37.87053327 82.74168536 -47.18798828 61.79882812 C-47.8435675 60.34654078 -48.53882981 58.91220565 -49.24609375 57.484375 C-51.52841765 52.83092083 -52.93936508 48.00356186 -54.25 43 C-54.51345215 42.02051392 -54.51345215 42.02051392 -54.78222656 41.02124023 C-56.02914757 35.96869113 -56.18920969 31.18975155 -56 26 C-55.45923828 25.7097998 -54.91847656 25.41959961 -54.36132812 25.12060547 C-42.02904168 18.48670369 -29.83677189 11.65533916 -17.77148438 4.54638672 C-16.81306641 3.98193848 -15.85464844 3.41749023 -14.8671875 2.8359375 C-14.02269043 2.33626465 -13.17819336 1.8365918 -12.30810547 1.32177734 C-11.16559326 0.66749756 -11.16559326 0.66749756 -10 0 C-9.04504639 -0.64461182 -9.04504639 -0.64461182 -8.07080078 -1.30224609 C-4.90085777 -2.37035469 -3.01554491 -1.27972922 0 0 Z M-11.02734375 7.203125 C-11.80996582 7.68346191 -12.59258789 8.16379883 -13.39892578 8.65869141 C-14.65552002 9.44638916 -14.65552002 9.44638916 -15.9375 10.25 C-17.72393905 11.34850593 -19.5117478 12.4447869 -21.30078125 13.5390625 C-22.22971191 14.10786133 -23.15864258 14.67666016 -24.11572266 15.26269531 C-29.79717468 18.6848396 -35.58649176 21.92082022 -41.37084961 25.16503906 C-42.21010986 25.6390918 -43.04937012 26.11314453 -43.9140625 26.6015625 C-44.6560791 27.01744629 -45.3980957 27.43333008 -46.16259766 27.86181641 C-48.14602659 28.99352366 -48.14602659 28.99352366 -50 31 C-51.67653821 43.57403657 -43.72336766 56.28579809 -38 67 C-37.59410645 67.77166504 -37.18821289 68.54333008 -36.77001953 69.33837891 C-30.43885219 81.33902968 -24.4108288 90.41839574 -13.8125 99 C-13.20567383 99.4942749 -12.59884766 99.9885498 -11.97363281 100.49780273 C-8.62896464 103.10522025 -7.37137855 104 -3 104 C-0.77782512 102.5920347 1.20446538 101.1934674 3.25 99.5625 C3.82919189 99.10294922 4.40838379 98.64339844 5.00512695 98.16992188 C23.08970431 83.5265394 36.06725561 56.75616555 40.8125 34.125 C39.69290496 29.81886524 37.73942998 28.85782989 33.99609375 26.64453125 C32.51302734 25.83048828 32.51302734 25.83048828 31 25 C29.8234923 24.33853001 28.64775617 23.67568644 27.47265625 23.01171875 C25.49451913 21.89643436 23.51433934 20.78590769 21.52636719 19.68823242 C17.65744099 17.54287597 13.85891816 15.31885716 10.10546875 12.9765625 C9.29585693 12.4714917 8.48624512 11.9664209 7.65209961 11.44604492 C6.07643703 10.45651153 4.50543539 9.45950888 2.93969727 8.4543457 C1.86353149 7.77891724 1.86353149 7.77891724 0.765625 7.08984375 C0.13430664 6.68628662 -0.49701172 6.28272949 -1.14746094 5.86694336 C-5.03800526 4.04626296 -7.66438101 5.10469335 -11.02734375 7.203125 Z " fill="#131313" transform="translate(95,34)"/>
<path d="M0 0 C-1.3921273 3.25978762 -2.92935421 4.99904949 -5.6953125 7.1875 C-14.86443555 14.69258392 -14.86443555 14.69258392 -19.265625 25.2890625 C-19.36341351 27.06539232 -19.40090849 28.84616922 -19.375 30.625 C-19.36355957 31.46546875 -19.35211914 32.3059375 -19.34033203 33.171875 C-18.98238441 37.70405657 -18.22247669 40.2079015 -14.8515625 43.3359375 C-13.91054687 44.21507812 -12.96953125 45.09421875 -12 46 C-12.26961169 49.27351884 -12.92976001 49.93819325 -15.47265625 52.17578125 C-19.94085217 57.1688348 -19.70298536 63.06312786 -19.3671875 69.5390625 C-17.82364007 79.18193673 -8.93728517 85.47237138 -1.76586914 91.32446289 C0 93 0 93 1 96 C-20.73120575 85.89132676 -30.03489962 63.60207076 -39 43 C-39.30832764 42.29649414 -39.61665527 41.59298828 -39.93432617 40.86816406 C-42.50192119 34.96292607 -43.03757786 30.43332973 -43 24 C-42.29093506 23.59273682 -41.58187012 23.18547363 -40.85131836 22.76586914 C-37.54587001 20.86620774 -34.24150409 18.96467162 -30.9375 17.0625 C-30.34541748 16.72185516 -29.75333496 16.38121033 -29.14331055 16.03024292 C-21.43562919 11.59376259 -13.74798015 7.13045259 -6.19116211 2.43969727 C-2.21091744 0 -2.21091744 0 0 0 Z " fill="#050505" transform="translate(90,41)"/>
<path d="M0 0 C4.29511375 1.57896563 8.21851851 3.68405077 12.1875 5.9375 C12.87005859 6.32284912 13.55261719 6.70819824 14.25585938 7.10522461 C22.62486508 11.86901839 30.81365382 16.93090833 39 22 C37.17835752 45.43400993 22.65616578 70.82636191 5.359375 86.2578125 C2.97431595 88.01896537 0.79314413 89.03923766 -2 90 C-1.236875 89.071875 -0.47375 88.14375 0.3125 87.1875 C1.11494141 86.20910156 1.11494141 86.20910156 1.93359375 85.2109375 C4 83 4 83 6.84765625 80.7890625 C11.86461905 76.68486325 15.0796583 73.69851713 15.91796875 67.0546875 C16.00840926 65.26726305 16.05633701 63.47720044 16.0625 61.6875 C16.07482666 60.39743042 16.07482666 60.39743042 16.08740234 59.08129883 C15.78624314 52.50129057 13.74499853 50.37056327 9 46 C9.26701377 42.72050295 9.92579653 42.06463635 12.484375 39.8359375 C16.94736299 34.80468085 16.47727741 28.74602913 16.171875 22.265625 C14.94310612 13.61383183 7.92162285 8.39649784 1.37695312 3.28662109 C0.92255859 2.86203613 0.46816406 2.43745117 0 2 C0 1.34 0 0.68 0 0 Z " fill="#FAFAFA" transform="translate(93,44)"/>
<path d="M0 0 C7.57619846 3.5373701 14.65898513 9.85365786 19 17 C20.09588438 20.5641657 20.34945588 23.84569697 20.3125 27.5625 C20.30508789 28.4066748 20.29767578 29.25084961 20.29003906 30.12060547 C19.96079685 34.67633546 19.24717475 37.19441324 15.85546875 40.33984375 C14.91316406 41.21769531 13.97085938 42.09554687 13 43 C13.26899325 46.27557371 13.92831316 46.93713267 16.4765625 49.171875 C20.94155962 54.17598942 20.62846079 60.11903947 20.296875 66.59375 C18.85135759 75.95263482 10.69890719 81.99608884 3.78759766 87.75683594 C2 89 2 89 0 89 C0.07561678 86.28283694 0.49987819 84.52602941 2.39501953 82.53271484 C3.61525462 81.48125363 4.84106187 80.43623695 6.07128906 79.39648438 C11.13472125 75.05072355 15.75243388 70.87787673 16.69311523 64.01098633 C16.89120516 57.00812481 14.74258937 52.96180057 9.96191406 47.8984375 C7.0838129 45.11345559 4.10276599 42.5328702 1 40 C0.67 43.3 0.34 46.6 0 50 C-1.65511416 48.6207382 -3.30206006 47.23067856 -4.91015625 45.796875 C-6.96634018 43.9642048 -6.96634018 43.9642048 -9.24609375 42.453125 C-13.08829331 39.46703051 -15.06348207 36.72312699 -15.9609375 31.94140625 C-16.69541428 25.17782683 -16.53090774 19.40909451 -12.14453125 13.94140625 C-9.02021405 10.58925107 -5.70444301 7.6950061 -2 5 C-1.34 5 -0.68 5 0 5 C0 9.29 0 13.58 0 18 C-0.66 18 -1.32 18 -2 18 C-1.67 24.27 -1.34 30.54 -1 37 C-0.505 28.09 -0.505 28.09 0 19 C0.66 19 1.32 19 2 19 C2.00386719 20.75376953 2.00386719 20.75376953 2.0078125 22.54296875 C2.04534498 24.09118368 2.08449266 25.63936005 2.125 27.1875 C2.12242188 27.95642578 2.11984375 28.72535156 2.1171875 29.51757812 C2.23900054 33.93936755 2.23900054 33.93936755 4.39355469 37.66650391 C6.20636968 39.22873309 6.20636968 39.22873309 9 41 C13.1281231 38.24791793 14.62274477 36.39918714 15.92578125 31.56640625 C16.63203033 26.21870963 16.69069341 21.41346622 13.50146484 16.86083984 C9.80870033 12.70394154 5.70505529 9.05960603 1.37695312 5.57714844 C0 4 0 4 0 0 Z " fill="#141414" transform="translate(90,44)"/>
<path d="M0 0 C1.72648126 0.89455159 3.42630006 1.84219279 5.09765625 2.8359375 C6.53322876 3.68248901 6.53322876 3.68248901 7.99780273 4.54614258 C9.51482788 5.451427 9.51482788 5.451427 11.0625 6.375 C13.19998858 7.63762024 15.33802098 8.89932023 17.4765625 10.16015625 C18.55711914 10.79840332 19.63767578 11.43665039 20.75097656 12.09423828 C26.68637295 15.57573093 32.6742268 18.96523182 38.66235352 22.35498047 C39.48405029 22.82178223 40.30574707 23.28858398 41.15234375 23.76953125 C41.87413818 24.17792236 42.59593262 24.58631348 43.33959961 25.00708008 C45 26 45 26 46 27 C46.14013569 40.9294872 41.52563307 54.12149621 34.96630859 66.16992188 C33.93874772 68.11600483 32.98936066 70.08768129 32.05078125 72.078125 C28.19267384 80.22090253 24.14070009 87.30105444 18 94 C17.40960938 94.6703125 16.81921875 95.340625 16.2109375 96.03125 C10.28911143 102.38146349 3.12644608 107.1155819 -4 112 C-25.786882 102.15555702 -37.87053327 82.74168536 -47.18798828 61.79882812 C-47.8435675 60.34654078 -48.53882981 58.91220565 -49.24609375 57.484375 C-51.52841765 52.83092083 -52.93936508 48.00356186 -54.25 43 C-54.51345215 42.02051392 -54.51345215 42.02051392 -54.78222656 41.02124023 C-56.02914757 35.96869113 -56.18920969 31.18975155 -56 26 C-55.45923828 25.7097998 -54.91847656 25.41959961 -54.36132812 25.12060547 C-42.02904168 18.48670369 -29.83677189 11.65533916 -17.77148438 4.54638672 C-16.81306641 3.98193848 -15.85464844 3.41749023 -14.8671875 2.8359375 C-14.02269043 2.33626465 -13.17819336 1.8365918 -12.30810547 1.32177734 C-11.16559326 0.66749756 -11.16559326 0.66749756 -10 0 C-9.04504639 -0.64461182 -9.04504639 -0.64461182 -8.07080078 -1.30224609 C-4.90085777 -2.37035469 -3.01554491 -1.27972922 0 0 Z M-13.5625 4.8125 C-14.90276475 5.63945054 -16.24395655 6.46489995 -17.5859375 7.2890625 C-18.2984668 7.72895508 -19.01099609 8.16884766 -19.74511719 8.62207031 C-30.56176902 15.23198618 -41.53605191 21.57693473 -53 27 C-53.93542416 42.9715014 -46.98968387 57.68502636 -39.75 71.5625 C-39.21503906 72.62146484 -38.68007813 73.68042969 -38.12890625 74.77148438 C-32.50266556 85.61636399 -25.52379985 94.34638527 -16 102 C-15.13632813 102.69996094 -14.27265625 103.39992188 -13.3828125 104.12109375 C-12.07957031 105.11302734 -12.07957031 105.11302734 -10.75 106.125 C-9.96109375 106.72570312 -9.1721875 107.32640625 -8.359375 107.9453125 C-6.04593353 109.26106052 -6.04593353 109.26106052 -3.59765625 108.46484375 C19.87606922 95.22778052 33.84624158 69.35589822 41.16796875 44.11328125 C41.50441406 42.85902344 41.84085937 41.60476562 42.1875 40.3125 C42.70376953 38.41951172 42.70376953 38.41951172 43.23046875 36.48828125 C44.21499776 32.25595854 44.21499776 32.25595854 44 28 C42.23239063 26.2837624 42.23239063 26.2837624 39.75 25.0625 C38.821875 24.54945312 37.89375 24.03640625 36.9375 23.5078125 C34.22407615 22.11501781 31.49367302 20.76945754 28.75 19.4375 C17.81459124 14.09161866 7.12548928 7.75032619 -3 1 C-7.60357525 1 -9.83149693 2.44164006 -13.5625 4.8125 Z " fill="#DADADA" transform="translate(95,34)"/>
<path d="M0 0 C6.36953288 3.18476644 13.07719568 7.94802921 15.71289062 14.87304688 C16.84292585 19.68651606 16.80853302 24.36718253 15 29 C11.60069475 34.22357337 6.95020784 38.28416275 2 42 C1.34 42 0.68 42 0 42 C0 28.14 0 14.28 0 0 Z " fill="#F6F6F6" transform="translate(91,85)"/>
<path d="M0 0 C0 4.29 0 8.58 0 13 C-0.66 13 -1.32 13 -2 13 C-1.9278125 14.24394531 -1.855625 15.48789063 -1.78125 16.76953125 C-1.28819995 25.51875277 -0.82268352 34.23268508 -1 43 C-6.96209885 40.3254136 -11.44840849 36.4864622 -15 31 C-16.92170607 25.16156651 -17.0122615 18.81931186 -15 13 C-12.22054466 8.50038117 -5.6299648 0 0 0 Z " fill="#060606" transform="translate(90,49)"/>
<path d="M0 0 C6.04778967 2.62070886 11.63507097 7.29124553 15 13 C16.67439279 18.35221912 16.26082558 23.60968146 15 29 C13.08840418 32.07720302 11.0524232 34.06887512 8 36 C4.57205056 34.1302094 3.10177406 33.21328918 1 30 C-0.35222731 24.15469014 -0.03903355 17.96432648 0 12 C-0.01289062 10.7315625 -0.02578125 9.463125 -0.0390625 8.15625 C-0.05849521 5.43567053 -0.0480014 2.72007951 0 0 Z " fill="#F4F4F4" transform="translate(91,50)"/>
<path d="M0 0 C3.50998157 1.88034727 4.95001372 2.67069897 7 6 C7.9573312 11.9216363 7.39324355 18.04516913 7 24 C7.66 24 8.32 24 9 24 C9 28.29 9 32.58 9 37 C2.96491155 33.98245578 -2.66242728 30.00387554 -6 24 C-6.85987009 20.87326327 -7.05591572 17.92169934 -7.0625 14.6875 C-7.07055664 13.92308594 -7.07861328 13.15867187 -7.08691406 12.37109375 C-6.86280526 7.98852161 -6.06060431 5.60432911 -2.93359375 2.45703125 C-1.96550781 1.64621094 -0.99742188 0.83539063 0 0 Z " fill="#070707" transform="translate(81,91)"/>
<path d="M0 0 C5.58303699 0.43218941 9.24549594 2.02582633 13.75 5.1875 C14.98107168 6.01600225 16.21416688 6.84150531 17.44921875 7.6640625 C18.05169434 8.06657227 18.65416992 8.46908203 19.27490234 8.88378906 C21.63600448 10.41152172 24.07849095 11.74593884 26.5625 13.0625 C42.53869048 21.53869048 42.53869048 21.53869048 46 25 C46.38852662 30.44631069 45.37180039 34.8811007 43.5 39.9375 C43.23227783 40.67403809 42.96455566 41.41057617 42.6887207 42.16943359 C39.72274095 50.08941942 36.05952558 57.588877 32 65 C31.46004395 65.98709961 31.46004395 65.98709961 30.90917969 66.99414062 C19.19530294 88.10190439 19.19530294 88.10190439 11.92578125 90.7578125 C10 91 10 91 7 91 C7.68964844 90.44054687 8.37929687 89.88109375 9.08984375 89.3046875 C25.26332229 75.50509401 37.9563034 51.89782402 42 31 C42.04818921 29.33403014 42.06313156 27.66547056 42 26 C41.20980469 25.55011719 40.41960937 25.10023437 39.60546875 24.63671875 C36.47992694 22.85426691 33.35637433 21.0684306 30.234375 19.27978516 C28.69574208 18.39850087 27.15665271 17.5180132 25.6171875 16.63818359 C23.13870941 15.22043512 20.66288866 13.79813456 18.1875 12.375 C17.41237061 11.93244873 16.63724121 11.48989746 15.83862305 11.03393555 C10.42884607 7.91625167 5.01917476 4.7243602 0 1 C0 0.67 0 0.34 0 0 Z " fill="#A3A3A3" transform="translate(89,40)"/>
<path d="M0 0 C2.67253424 1.19411104 4.11218319 2.08155723 5.9375 4.3125 C4.9475 4.6425 3.9575 4.9725 2.9375 5.3125 C1.9475 4.6525 0.9575 3.9925 -0.0625 3.3125 C-4.80131471 3.58702444 -7.82212508 5.1178622 -11.75 7.6875 C-12.88382898 8.41264475 -14.01935686 9.13513754 -15.15625 9.85546875 C-15.77371094 10.24782715 -16.39117187 10.64018555 -17.02734375 11.04443359 C-44.74136022 28.3125 -44.74136022 28.3125 -50.0625 28.3125 C-48.93081604 39.0783882 -47.52281283 49.79944005 -42.37109375 59.49609375 C-41.0625 62.3125 -41.0625 62.3125 -42.0625 65.3125 C-46.01082906 61.05584155 -47.54644942 56.7953882 -49.25 51.375 C-49.50974609 50.58931641 -49.76949219 49.80363281 -50.03710938 48.99414062 C-52.41507914 41.6513141 -53.21650589 35.01279444 -53.0625 27.3125 C-52.52173828 27.0222998 -51.98097656 26.73209961 -51.42382812 26.43310547 C-39.09154168 19.79920369 -26.89927189 12.96783916 -14.83398438 5.85888672 C-13.87556641 5.29443848 -12.91714844 4.72999023 -11.9296875 4.1484375 C-11.08519043 3.64876465 -10.24069336 3.1490918 -9.37060547 2.63427734 C-8.22809326 1.97999756 -8.22809326 1.97999756 -7.0625 1.3125 C-6.01666748 0.70849365 -6.01666748 0.70849365 -4.94970703 0.09228516 C-3.0625 -0.6875 -3.0625 -0.6875 0 0 Z " fill="#DEDEDE" transform="translate(92.0625,32.6875)"/>
<path d="M0 0 C4.43235197 0.53212577 7.52294979 1.58900022 11.34375 3.87890625 C12.83346313 4.76122925 12.83346313 4.76122925 14.35327148 5.66137695 C15.39169189 6.28874756 16.4301123 6.91611816 17.5 7.5625 C19.64683985 8.83903888 21.79397417 10.11508264 23.94140625 11.390625 C25.49625732 12.3197168 25.49625732 12.3197168 27.08251953 13.26757812 C30.83998331 15.49878842 34.63128602 17.66584063 38.4375 19.8125 C43.88950276 22.88950276 43.88950276 22.88950276 45 24 C44.96212481 25.8150957 44.84507974 27.62886085 44.6875 29.4375 C44.60886719 30.42621094 44.53023437 31.41492188 44.44921875 32.43359375 C44 35 44 35 42 37 C42 33.04 42 29.08 42 25 C40.71609375 24.34515625 39.4321875 23.6903125 38.109375 23.015625 C28.50268564 18.07412698 19.02548394 12.97971196 9.75 7.4375 C8.88729492 6.92541992 8.02458984 6.41333984 7.13574219 5.88574219 C6.34329102 5.4065332 5.55083984 4.92732422 4.734375 4.43359375 C4.03538086 4.01134521 3.33638672 3.58909668 2.61621094 3.15405273 C1 2 1 2 0 0 Z " fill="#E1E1E1" transform="translate(96,37)"/>
<path d="M0 0 C1.68279095 5.04837285 -0.87805411 9.55357167 -3.02783203 14.24121094 C-4.15616381 16.48386417 -5.33878434 18.68296737 -6.5625 20.875 C-6.99578613 21.65222412 -7.42907227 22.42944824 -7.87548828 23.23022461 C-17.0608733 39.17307395 -17.0608733 39.17307395 -24.1015625 41.77734375 C-26 42 -26 42 -29 42 C-28.31035156 41.44054687 -27.62070313 40.88109375 -26.91015625 40.3046875 C-13.98581364 29.27733345 -7.24422091 15.10497126 0 0 Z " fill="#969696" transform="translate(125,89)"/>
<path d="M0 0 C0.66 0 1.32 0 2 0 C2.29132812 0.58378418 2.58265625 1.16756836 2.8828125 1.76904297 C10.61643918 17.25425818 10.61643918 17.25425818 21 31 C22.34165562 32.65997462 23.67697554 34.32513826 25 36 C21.33021648 36 20.92394327 35.38198536 18.375 32.875 C10.9319639 25.13040442 0 11.0422242 0 0 Z " fill="#DFDFDF" transform="translate(50,97)"/>
<path d="M0 0 C1.32 0.33 2.64 0.66 4 1 C3.96519531 1.59425781 3.93039063 2.18851563 3.89453125 2.80078125 C3.56849203 12.78379171 6.62285366 21.35239393 10.1328125 30.58984375 C10.89791691 32.71628259 11.49944703 34.79858848 12 37 C11.01 37.495 11.01 37.495 10 38 C7.04916456 33.60908619 5.49506583 29.04888351 3.875 24.0625 C3.47861328 22.88397461 3.47861328 22.88397461 3.07421875 21.68164062 C1.14437542 15.82843559 -0.15651591 10.33005017 -0.0625 4.125 C-0.05347656 3.34382813 -0.04445312 2.56265625 -0.03515625 1.7578125 C-0.02355469 1.17773438 -0.01195312 0.59765625 0 0 Z " fill="#CECECE" transform="translate(39,60)"/>
<path d="M0 0 C0.66 0.33 1.32 0.66 2 1 C2.02479481 5.46573511 2.04290486 9.9314333 2.05493164 14.3972168 C2.05994766 15.91512755 2.06676203 17.4330335 2.07543945 18.95092773 C2.08762497 21.13787016 2.09325572 23.32474846 2.09765625 25.51171875 C2.10289307 26.82615967 2.10812988 28.14060059 2.11352539 29.49487305 C2.01640028 32.49363696 1.64814282 35.08736213 1 38 C1 38.99 1 39.98 1 41 C-0.5625 39.25 -0.5625 39.25 -2 37 C-1.70702988 35.65722027 -1.36315647 34.32552113 -1 33 C-0.7801777 30.75292759 -0.59516013 28.50228762 -0.4375 26.25 C-0.35371094 25.07953125 -0.26992187 23.9090625 -0.18359375 22.703125 C-0.12300781 21.81109375 -0.06242187 20.9190625 0 20 C-0.66 20 -1.32 20 -2 20 C-2.05392397 17.22890693 -2.09363455 14.45886182 -2.125 11.6875 C-2.14175781 10.90181641 -2.15851563 10.11613281 -2.17578125 9.30664062 C-2.18544922 8.1706543 -2.18544922 8.1706543 -2.1953125 7.01171875 C-2.20578613 6.31522217 -2.21625977 5.61872559 -2.22705078 4.90112305 C-2 3 -2 3 0 0 Z " fill="#797979" transform="translate(90,95)"/>
<path d="M0 0 C2.14275821 3.21413731 2.20507828 4.11624456 1.54296875 7.76953125 C-1.89583333 21.89583333 -1.89583333 21.89583333 -7 27 C-8.18504475 23.44486575 -7.79812031 22.97353748 -6.3125 19.6875 C-3.59373481 13.29319162 -1.81331922 6.69384861 0 0 Z " fill="#CCCCCC" transform="translate(137,71)"/>
<path d="M0 0 C7.12057532 0.15823501 12.47379626 3.67297248 18 8 C18 8.66 18 9.32 18 10 C22.455 12.475 22.455 12.475 27 15 C26.01 15.495 26.01 15.495 25 16 C22.40067793 14.72287644 19.93501505 13.39249516 17.4375 11.9375 C16.71820313 11.525 15.99890625 11.1125 15.2578125 10.6875 C4.32654838 4.36509319 4.32654838 4.36509319 0 1 C0 0.67 0 0.34 0 0 Z " fill="#8C8C8C" transform="translate(89,40)"/>
<path d="M0 0 C0.99 0.33 1.98 0.66 3 1 C-2.53733825 7.37701659 -7.91066157 13.30677875 -15 18 C-15.66 17.67 -16.32 17.34 -17 17 C-11.39 11.39 -5.78 5.78 0 0 Z " fill="#ECECEC" transform="translate(108,116)"/>
<path d="M0 0 C0.66 0.33 1.32 0.66 2 1 C-1.63 3.97 -5.26 6.94 -9 10 C-12.13782964 8.43108518 -14.50839252 6.97689907 -17.25 4.875 C-17.95640625 4.33617187 -18.6628125 3.79734375 -19.390625 3.2421875 C-19.92171875 2.83226562 -20.4528125 2.42234375 -21 2 C-20.34 1.67 -19.68 1.34 -19 1 C-15.7 3.31 -12.4 5.62 -9 8 C-8.34 6.68 -7.68 5.36 -7 4 C-3.9375 2.3125 -3.9375 2.3125 -1 1 C-0.67 0.67 -0.34 0.34 0 0 Z " fill="#B8B8B8" transform="translate(100,129)"/>
<path d="M0 0 C0.33 0.66 0.66 1.32 1 2 C0.525625 2.5775 0.05125 3.155 -0.4375 3.75 C-2.09716291 5.82456298 -2.09716291 5.82456298 -2.3984375 7.9453125 C-3.51028526 11.74292237 -6.84485089 13.8196124 -10 16 C-13.4375 17.375 -13.4375 17.375 -16 18 C-15.360625 17.38125 -14.72125 16.7625 -14.0625 16.125 C-9.04616332 11.10866332 -3.93890352 5.90835528 0 0 Z " fill="#767676" transform="translate(112,114)"/>
<path d="M0 0 C0.66 0 1.32 0 2 0 C3.33838733 2.45570175 4.67086232 4.91429916 6 7.375 C6.57234375 8.42300781 6.57234375 8.42300781 7.15625 9.4921875 C10 14.7734375 10 14.7734375 10 17 C9.01 17.33 8.02 17.66 7 18 C5.82625827 15.56568361 4.66084237 13.12795818 3.5 10.6875 C3.16613281 9.99720703 2.83226562 9.30691406 2.48828125 8.59570312 C0 3.33984375 0 3.33984375 0 0 Z " fill="#DEDEDE" transform="translate(50,97)"/>
<path d="M0 0 C7.83797189 0.75365114 7.83797189 0.75365114 11 4 C11.2421875 6.62890625 11.2421875 6.62890625 10.875 9.5625 C10.76929688 10.53316406 10.66359375 11.50382812 10.5546875 12.50390625 C10 15 10 15 8 17 C8 13.04 8 9.08 8 5 C5.36 3.68 2.72 2.36 0 1 C0 0.67 0 0.34 0 0 Z " fill="#D9D9D9" transform="translate(130,57)"/>
<path d="M0 0 C2.45049229 1.28093915 4.01450059 2.31633406 5.75 4.4375 C4.76 4.7675 3.77 5.0975 2.75 5.4375 C1.76 4.7775 0.77 4.1175 -0.25 3.4375 C-3.20817184 3.73935427 -5.58437658 4.10468829 -8.25 5.4375 C-8.91 4.7775 -9.57 4.1175 -10.25 3.4375 C-4.1408927 -0.71669297 -4.1408927 -0.71669297 0 0 Z " fill="#DDDDDD" transform="translate(92.25,32.5625)"/>
<path d="M0 0 C0.33 0.66 0.66 1.32 1 2 C1.66 2 2.32 2 3 2 C2.01 5.96 1.02 9.92 0 14 C-0.99 13.34 -1.98 12.68 -3 12 C-2.68950274 10.56206608 -2.3765224 9.1246682 -2.0625 7.6875 C-1.88847656 6.88699219 -1.71445313 6.08648437 -1.53515625 5.26171875 C-1 3 -1 3 0 0 Z " fill="#1C1C1C" transform="translate(133,75)"/>
<path d="M0 0 C3.36606602 1.12202201 4.19481269 2.09274021 6.4375 4.75 C7.0459375 5.46671875 7.654375 6.1834375 8.28125 6.921875 C10.21515601 9.26014318 12.13184428 11.60876067 14 14 C7.51328965 11.11701762 3.82602766 6.79369903 0 1 C0 0.67 0 0.34 0 0 Z " fill="#BDBDBD" transform="translate(66,116)"/>
<path d="M0 0 C1.78016355 2.67024533 2.97163019 5.05030861 4.1875 8 C4.55230469 8.86625 4.91710938 9.7325 5.29296875 10.625 C6 13 6 13 5 16 C1.60840044 10.91260065 0 6.13018154 0 0 Z " fill="#CACACA" transform="translate(47,74)"/>
<path d="M0 0 C0.99 0.33 1.98 0.66 3 1 C0.24479785 3.95929119 -2.46627288 6.03681826 -6 8 C-6.66 7.34 -7.32 6.68 -8 6 C-6.7391988 4.96680187 -5.46596742 3.94875621 -4.1875 2.9375 C-3.47980469 2.36902344 -2.77210937 1.80054688 -2.04296875 1.21484375 C-1.36878906 0.81394531 -0.69460937 0.41304687 0 0 Z " fill="#D6D6D6" transform="translate(103,133)"/>
<path d="M0 0 C-1.55603771 3.81936528 -3.95604931 6.26044438 -7 9 C-7.66 9 -8.32 9 -9 9 C-7.45665977 5.21180126 -4.44676575 0 0 0 Z " fill="#E7E7E7" transform="translate(114,125)"/>
<path d="M0 0 C6.46850394 0.61023622 6.46850394 0.61023622 8.875 2.375 C10 4 10 4 11 7 C6.89188572 5.55007731 3.53144334 3.54592427 0 1 C0 0.67 0 0.34 0 0 Z " fill="#828282" transform="translate(89,40)"/>
<path d="M0 0 C0.66 0.33 1.32 0.66 2 1 C0.93106782 2.03590338 -0.15578488 3.05333942 -1.25 4.0625 C-2.15492187 4.91521484 -2.15492187 4.91521484 -3.078125 5.78515625 C-5 7 -5 7 -7.234375 6.68359375 C-7.81703125 6.45800781 -8.3996875 6.23242188 -9 6 C-6.63672401 3.26357517 -4.36305523 2.23902035 -1 1 C-0.67 0.67 -0.34 0.34 0 0 Z " fill="#9F9F9F" transform="translate(100,129)"/>
<path d="M0 0 C0.33 0.66 0.66 1.32 1 2 C0.04737966 3.48285242 -0.91228405 4.96118201 -1.875 6.4375 C-2.40867187 7.26121094 -2.94234375 8.08492187 -3.4921875 8.93359375 C-5 11 -5 11 -7 12 C-6.731875 11.484375 -6.46375 10.96875 -6.1875 10.4375 C-5.21102263 8.43315171 -4.34009255 6.37772751 -3.5 4.3125 C-2 1 -2 1 0 0 Z " fill="#BBBBBB" transform="translate(116,110)"/>
<path d="M0 0 C1.32 0.33 2.64 0.66 4 1 C3.67 3.64 3.34 6.28 3 9 C2.01 9 1.02 9 0 9 C0 6.03 0 3.06 0 0 Z " fill="#AAAAAA" transform="translate(39,60)"/>
<path d="M0 0 C3.7952131 1.49097658 5.61042731 3.75700849 8 7 C5 7 5 7 2.3125 4.625 C0 2 0 2 0 0 Z " fill="#E7E7E7" transform="translate(67,126)"/>
<path d="M0 0 C0.33 0 0.66 0 1 0 C1 2.64 1 5.28 1 8 C0.01 8.33 -0.98 8.66 -2 9 C-1.125 1.125 -1.125 1.125 0 0 Z " fill="#0B0B0B" transform="translate(136,68)"/>
<path d="M0 0 C0.99 0.33 1.98 0.66 3 1 C1.02 3.97 1.02 3.97 -1 7 C-1.99 6.34 -2.98 5.68 -4 5 C-2.68 3.35 -1.36 1.7 0 0 Z " fill="#D1D1D1" transform="translate(116,119)"/>
<path d="M0 0 C4 4.75 4 4.75 4 7 C3.01 7.33 2.02 7.66 1 8 C0.26919734 6.02253397 -0.39421747 4.01927511 -1 2 C-0.67 1.34 -0.34 0.68 0 0 Z " fill="#D3D3D3" transform="translate(56,107)"/>
<path d="M0 0 C2.3125 0.8125 2.3125 0.8125 4 2 C0.535 3.485 0.535 3.485 -3 5 C-3.66 4.34 -4.32 3.68 -5 3 C-2.75 1.375 -2.75 1.375 0 0 Z " fill="#CACACA" transform="translate(87,33)"/>
<path d="M0 0 C0.33 0.99 0.66 1.98 1 3 C-0.32 4.32 -1.64 5.64 -3 7 C-3.33 6.34 -3.66 5.68 -4 5 C-2.52830189 1.26415094 -2.52830189 1.26415094 0 0 Z " fill="#E6E6E6" transform="translate(121,113)"/>
<path d="M0 0 C0.99 0.33 1.98 0.66 3 1 C1.92598892 3.91517292 1.22189824 5.77810176 -1 8 C-2.2077558 4.37673261 -1.54311128 3.35853631 0 0 Z " fill="#BFBFBF" transform="translate(131,90)"/>
<path d="M0 0 C1.74627478 2.61941217 2.38722388 4.03824877 3 7 C2.01 7.495 2.01 7.495 1 8 C-0.5625 5.625 -0.5625 5.625 -2 3 C-1 1 -1 1 0 0 Z " fill="#BFBFBF" transform="translate(48,90)"/>
</svg>
