<?xml version="1.0" encoding="UTF-8"?>
<svg version="1.1" xmlns="http://www.w3.org/2000/svg" width="192" height="192">
<path d="M0 0 C63.36 0 126.72 0 192 0 C192 63.36 192 126.72 192 192 C128.64 192 65.28 192 0 192 C0 128.64 0 65.28 0 0 Z " fill="#000000" transform="translate(0,0)"/>
<path d="M0 0 C2.76066789 1.39537422 5.48396831 2.82515456 8.18505859 4.33325195 C9.81350708 5.23998657 9.81350708 5.23998657 11.47485352 6.16503906 C12.64133495 6.81866115 13.80775621 7.47239065 14.97412109 8.1262207 C16.17233664 8.79511542 17.37066147 9.4638144 18.5690918 10.13232422 C29.93817144 16.48032866 41.27527572 22.88543013 52.59912109 29.3137207 C52.80001807 35.71679504 52.47223331 41.53509893 50.91162109 47.7512207 C50.72937988 48.49146484 50.54713867 49.23170898 50.359375 49.99438477 C48.76916825 56.16400993 46.44957761 61.61976001 43.59912109 67.3137207 C42.85221644 68.95089978 42.11053881 70.59046823 41.37255859 72.23168945 C33.24435958 90.13717093 23.30048906 104.2077121 7.22412109 115.9387207 C6.33140503 116.59638428 6.33140503 116.59638428 5.4206543 117.26733398 C2.10586153 119.60015762 0.77933271 120.3137207 -3.40087891 120.3137207 C-5.16503906 119.37084961 -5.16503906 119.37084961 -6.93994141 118.0402832 C-7.59784668 117.55076172 -8.25575195 117.06124023 -8.93359375 116.55688477 C-9.62404785 116.02289063 -10.31450195 115.48889648 -11.02587891 114.9387207 C-11.7408252 114.38925781 -12.45577148 113.83979492 -13.19238281 113.27368164 C-34.55684359 96.60486585 -50.69325478 68.7935094 -55.12109375 41.76928711 C-55.41776487 39.16551909 -55.46164586 36.64829234 -55.43994141 34.02856445 C-55.43430176 33.14160889 -55.42866211 32.25465332 -55.42285156 31.34082031 C-55.41560059 30.67187744 -55.40834961 30.00293457 -55.40087891 29.3137207 C-54.76923828 28.96293457 -54.13759766 28.61214844 -53.48681641 28.25073242 C-40.24745212 20.88943603 -27.07648028 13.43991592 -14.02001953 5.75854492 C-13.07707031 5.20440918 -12.13412109 4.65027344 -11.16259766 4.0793457 C-9.92449341 3.34893066 -9.92449341 3.34893066 -8.66137695 2.60375977 C-7.54243042 1.96519043 -7.54243042 1.96519043 -6.40087891 1.3137207 C-5.74579346 0.88542969 -5.09070801 0.45713867 -4.41577148 0.01586914 C-2.40087891 -0.6862793 -2.40087891 -0.6862793 0 0 Z " fill="#E4E4E4" transform="translate(97.40087890625,34.686279296875)"/>
<path d="M0 0 C2.76066789 1.39537422 5.48396831 2.82515456 8.18505859 4.33325195 C9.81350708 5.23998657 9.81350708 5.23998657 11.47485352 6.16503906 C12.64133495 6.81866115 13.80775621 7.47239065 14.97412109 8.1262207 C16.17233664 8.79511542 17.37066147 9.4638144 18.5690918 10.13232422 C29.93817144 16.48032866 41.27527572 22.88543013 52.59912109 29.3137207 C52.80001807 35.71679504 52.47223331 41.53509893 50.91162109 47.7512207 C50.72937988 48.49146484 50.54713867 49.23170898 50.359375 49.99438477 C48.76916825 56.16400993 46.44957761 61.61976001 43.59912109 67.3137207 C42.85221644 68.95089978 42.11053881 70.59046823 41.37255859 72.23168945 C33.24435958 90.13717093 23.30048906 104.2077121 7.22412109 115.9387207 C6.33140503 116.59638428 6.33140503 116.59638428 5.4206543 117.26733398 C2.10586153 119.60015762 0.77933271 120.3137207 -3.40087891 120.3137207 C-5.16503906 119.37084961 -5.16503906 119.37084961 -6.93994141 118.0402832 C-7.59784668 117.55076172 -8.25575195 117.06124023 -8.93359375 116.55688477 C-9.62404785 116.02289063 -10.31450195 115.48889648 -11.02587891 114.9387207 C-11.7408252 114.38925781 -12.45577148 113.83979492 -13.19238281 113.27368164 C-34.55684359 96.60486585 -50.69325478 68.7935094 -55.12109375 41.76928711 C-55.41776487 39.16551909 -55.46164586 36.64829234 -55.43994141 34.02856445 C-55.43430176 33.14160889 -55.42866211 32.25465332 -55.42285156 31.34082031 C-55.41560059 30.67187744 -55.40834961 30.00293457 -55.40087891 29.3137207 C-54.76923828 28.96293457 -54.13759766 28.61214844 -53.48681641 28.25073242 C-40.24745212 20.88943603 -27.07648028 13.43991592 -14.02001953 5.75854492 C-13.07707031 5.20440918 -12.13412109 4.65027344 -11.16259766 4.0793457 C-9.92449341 3.34893066 -9.92449341 3.34893066 -8.66137695 2.60375977 C-7.54243042 1.96519043 -7.54243042 1.96519043 -6.40087891 1.3137207 C-5.74579346 0.88542969 -5.09070801 0.45713867 -4.41577148 0.01586914 C-2.40087891 -0.6862793 -2.40087891 -0.6862793 0 0 Z M-6.50634766 10.62231445 C-7.31740967 11.11779785 -8.12847168 11.61328125 -8.96411133 12.1237793 C-9.83011963 12.66083496 -10.69612793 13.19789062 -11.58837891 13.7512207 C-18.0260137 17.68678588 -24.485812 21.5364238 -31.08837891 25.1887207 C-33.52817165 26.55968643 -35.96426563 27.93710303 -38.40087891 29.3137207 C-39.38701172 29.85512695 -40.37314453 30.3965332 -41.38916016 30.9543457 C-46.08897728 33.63411804 -46.08897728 33.63411804 -48.21337891 38.3762207 C-47.97298919 40.2391318 -47.97298919 40.2391318 -47.40087891 42.3137207 C-47.18818359 43.22895508 -46.97548828 44.14418945 -46.75634766 45.0871582 C-44.40605592 53.78001805 -40.53367181 61.50057055 -36.375 69.4284668 C-34.96764581 72.15217333 -33.66231669 74.9237139 -32.33837891 77.6887207 C-29.52869981 83.30046459 -26.19294483 88.32185563 -22.40087891 93.3137207 C-21.76472656 94.19930664 -21.76472656 94.19930664 -21.11572266 95.1027832 C-16.05307361 101.63623243 -8.93854413 106.3612154 -2.40087891 111.3137207 C-0.25478224 110.49739456 -0.25478224 110.49739456 0.47949219 108.4597168 C1.80715995 105.91497201 3.26305443 104.74533587 5.51318359 102.9777832 C15.3184548 94.93229866 15.3184548 94.93229866 19.96630859 83.5480957 C20.07583944 81.59754189 20.12107057 79.64222407 20.09912109 77.6887207 C20.09219238 76.76526855 20.08526367 75.84181641 20.078125 74.89038086 C19.6196281 68.68086114 17.74465111 65.55972478 13.07763672 61.48022461 C12.58972656 61.09527832 12.10181641 60.71033203 11.59912109 60.3137207 C17.47412109 53.4387207 17.47412109 53.4387207 18.59912109 52.3137207 C20.11742907 44.54865991 21.27014292 34.72776837 17.04052734 27.73803711 C13.24284651 23.16859985 8.8552392 19.31341471 4.18139648 15.66040039 C2.59912109 14.3137207 2.59912109 14.3137207 1.59912109 12.3137207 C2.58912109 11.9837207 3.57912109 11.6537207 4.59912109 11.3137207 C0.30870094 7.76302816 -1.82349813 7.72650022 -6.50634766 10.62231445 Z " fill="#141414" transform="translate(97.40087890625,34.686279296875)"/>
<path d="M0 0 C3.19094153 1.76002605 6.3258544 3.58962995 9.42578125 5.50390625 C14.80486597 8.78268168 20.23122969 11.94510044 25.73828125 15.00390625 C32.82772995 18.94855489 39.74409991 23.12464332 46.61328125 27.44140625 C45.87963384 50.55129981 30.71964025 79.57012275 14.11328125 95.25390625 C11.23779496 97.76995676 8.35166404 100.24785479 5.36328125 102.62890625 C4.38875 103.40621094 3.41421875 104.18351562 2.41015625 104.984375 C-0.38671875 106.44140625 -0.38671875 106.44140625 -2.8515625 105.99609375 C-6.03500572 104.04384351 -8.88304243 101.8171308 -11.69921875 99.37890625 C-12.27317383 98.88285889 -12.84712891 98.38681152 -13.43847656 97.87573242 C-30.60887788 82.81656495 -47.62464931 53.96421223 -50.19921875 30.87890625 C-49.38671875 27.44140625 -49.38671875 27.44140625 -47.87597656 26.1965332 C-47.22467773 25.81972412 -46.57337891 25.44291504 -45.90234375 25.0546875 C-45.17635986 24.62744385 -44.45037598 24.2002002 -43.70239258 23.76000977 C-42.93822021 23.32487061 -42.17404785 22.88973145 -41.38671875 22.44140625 C-40.29943481 21.80513306 -40.29943481 21.80513306 -39.19018555 21.15600586 C-36.90787996 19.82317162 -34.61698311 18.50615813 -32.32421875 17.19140625 C-18.26405317 9.33710519 -18.26405317 9.33710519 -4.78515625 0.56640625 C-2.38671875 -0.55859375 -2.38671875 -0.55859375 0 0 Z M-6.4921875 3.75 C-7.30324951 4.2454834 -8.11431152 4.7409668 -8.94995117 5.25146484 C-9.81595947 5.78852051 -10.68196777 6.32557617 -11.57421875 6.87890625 C-18.01185354 10.81447143 -24.47165184 14.66410935 -31.07421875 18.31640625 C-33.51401149 19.68737197 -35.95010547 21.06478858 -38.38671875 22.44140625 C-39.37285156 22.9828125 -40.35898437 23.52421875 -41.375 24.08203125 C-46.07481712 26.76180358 -46.07481712 26.76180358 -48.19921875 31.50390625 C-47.95882903 33.36681734 -47.95882903 33.36681734 -47.38671875 35.44140625 C-47.17402344 36.35664062 -46.96132813 37.271875 -46.7421875 38.21484375 C-44.39189576 46.9077036 -40.51951166 54.6282561 -36.36083984 62.55615234 C-34.95348565 65.27985888 -33.64815654 68.05139945 -32.32421875 70.81640625 C-29.51453965 76.42815013 -26.17878467 81.44954118 -22.38671875 86.44140625 C-21.75056641 87.32699219 -21.75056641 87.32699219 -21.1015625 88.23046875 C-16.03891346 94.76391797 -8.92438398 99.48890095 -2.38671875 104.44140625 C-0.24062208 103.6250801 -0.24062208 103.6250801 0.49365234 101.58740234 C1.8213201 99.04265756 3.27721459 97.87302142 5.52734375 96.10546875 C15.33261495 88.0599842 15.33261495 88.0599842 19.98046875 76.67578125 C20.0899996 74.72522744 20.13523073 72.76990961 20.11328125 70.81640625 C20.10635254 69.8929541 20.09942383 68.96950195 20.09228516 68.01806641 C19.63378826 61.80854669 17.75881127 58.68741032 13.09179688 54.60791016 C12.60388672 54.22296387 12.11597656 53.83801758 11.61328125 53.44140625 C17.48828125 46.56640625 17.48828125 46.56640625 18.61328125 45.44140625 C20.13158923 37.67634545 21.28430308 27.85545391 17.0546875 20.86572266 C13.25700667 16.29628539 8.86939935 12.44110025 4.19555664 8.78808594 C2.61328125 7.44140625 2.61328125 7.44140625 1.61328125 5.44140625 C2.60328125 5.11140625 3.59328125 4.78140625 4.61328125 4.44140625 C0.32286109 0.89071371 -1.80933798 0.85418577 -6.4921875 3.75 Z " fill="#FAFAFA" transform="translate(97.38671875,41.55859375)"/>
<path d="M0 0 C1.75 1.5625 1.75 1.5625 3 3 C0.525 2.01 0.525 2.01 -2 1 C-16.04782575 11.75212081 -16.04782575 11.75212081 -23.57421875 26.98046875 C-23.78662043 29.91943173 -23.78662043 29.91943173 -23.6875 32.8125 C-23.65946289 34.17979248 -23.65946289 34.17979248 -23.63085938 35.57470703 C-23.06500756 41.6757213 -21.0431309 44.80830537 -16.47192383 48.8269043 C-15.98618896 49.21402588 -15.5004541 49.60114746 -15 50 C-20.875 56.875 -20.875 56.875 -22 58 C-23.62243344 65.88688664 -24.68486755 75.59793592 -20.359375 82.68994141 C-15.64192885 88.40385938 -9.70647339 94.64676331 -3 98 C-3.06622559 97.25274658 -3.13245117 96.50549316 -3.20068359 95.7355957 C-2.95414597 92.37494594 -2.16369655 91.55321012 0.2109375 89.23046875 C0.87867188 88.56982422 1.54640625 87.90917969 2.234375 87.22851562 C3.29398438 86.21821289 3.29398438 86.21821289 4.375 85.1875 C5.07367188 84.49462891 5.77234375 83.80175781 6.4921875 83.08789062 C11.70539563 78 11.70539563 78 14 78 C15.04035844 67.42484669 15.04035844 67.42484669 11.48046875 57.73974609 C7.81252859 53.59053118 3.69735033 49.98139999 -0.63891602 46.54541016 C-2 45 -2 45 -2 41 C0.27292941 42.01889939 1.83024561 42.80902631 3.5 44.6875 C4.91112661 46.22346302 4.91112661 46.22346302 6.9375 45.9375 C9.7462804 44.66078163 11.07390987 43.44539813 13 41 C14.51280594 34.42665737 15.3386596 26.77260066 11.640625 20.80712891 C7.63462623 15.94089703 2.69413796 10.84706898 -3 8 C-3 6.35 -3 4.7 -3 3 C4.98409631 6.71466849 12.46169774 13.4707734 17 21 C18.18959543 24.89835937 18.4660836 28.49954502 18.4375 32.5625 C18.43314941 33.9532373 18.43314941 33.9532373 18.42871094 35.37207031 C18.07872269 40.53580064 17.09259723 43.44009298 13.41015625 47.15234375 C12.29423775 48.12593075 11.16414055 49.08461891 10 50 C10.67591187 50.79096069 10.67591187 50.79096069 11.36547852 51.59790039 C12.44026693 52.85563151 13.51505534 54.11336263 14.58984375 55.37109375 C15.36795695 56.26991149 16.15936528 57.15936528 17 58 C18.61819269 65.14098916 19.12996442 72.9549951 17 80 C12.49998446 86.87110524 6.09959882 92.15237735 -0.25585938 97.2644043 C-0.83142578 97.83715088 -1.40699219 98.40989746 -2 99 C-2 99.99 -2 100.98 -2 102 C-16.3318891 97.43862663 -26.7604869 81.85623649 -33.359375 69.29296875 C-35.50631217 64.98375915 -37.61147109 60.65629431 -39.6875 56.3125 C-40.0683374 55.51650391 -40.4491748 54.72050781 -40.84155273 53.90039062 C-43.14909757 49.00556772 -45.16038415 44.08923666 -47 39 C-47.391875 37.989375 -47.78375 36.97875 -48.1875 35.9375 C-49.22492325 32.18681594 -49.75930342 29.86554467 -49 26 C-46.42932636 23.34193802 -43.22244242 21.76208462 -40 20 C-38.67537243 19.26375589 -37.35118653 18.52671682 -36.02734375 17.7890625 C-33.7699589 16.53389606 -31.51028906 15.28405427 -29.2421875 14.04833984 C-25.07619494 11.76716723 -20.99232184 9.4063346 -16.97265625 6.875 C-16.16046631 6.36412842 -15.34827637 5.85325684 -14.51147461 5.3269043 C-12.9467758 4.33398085 -11.38868109 3.33055581 -9.83813477 2.31567383 C-9.13100342 1.86732178 -8.42387207 1.41896973 -7.6953125 0.95703125 C-7.07672363 0.55460205 -6.45813477 0.15217285 -5.82080078 -0.26245117 C-3.4720647 -1.2138499 -2.33544257 -0.89514169 0 0 Z " fill="#070707" transform="translate(99,44)"/>
<path d="M0 0 C2.76066789 1.39537422 5.48396831 2.82515456 8.18505859 4.33325195 C9.81350708 5.23998657 9.81350708 5.23998657 11.47485352 6.16503906 C12.64133495 6.81866115 13.80775621 7.47239065 14.97412109 8.1262207 C16.17233664 8.79511542 17.37066147 9.4638144 18.5690918 10.13232422 C29.93817144 16.48032866 41.27527572 22.88543013 52.59912109 29.3137207 C52.80001807 35.71679504 52.47223331 41.53509893 50.91162109 47.7512207 C50.72937988 48.49146484 50.54713867 49.23170898 50.359375 49.99438477 C48.76916825 56.16400993 46.44957761 61.61976001 43.59912109 67.3137207 C42.85221644 68.95089978 42.11053881 70.59046823 41.37255859 72.23168945 C33.24435958 90.13717093 23.30048906 104.2077121 7.22412109 115.9387207 C6.33140503 116.59638428 6.33140503 116.59638428 5.4206543 117.26733398 C2.10586153 119.60015762 0.77933271 120.3137207 -3.40087891 120.3137207 C-5.16503906 119.37084961 -5.16503906 119.37084961 -6.93994141 118.0402832 C-7.59784668 117.55076172 -8.25575195 117.06124023 -8.93359375 116.55688477 C-9.62404785 116.02289063 -10.31450195 115.48889648 -11.02587891 114.9387207 C-11.7408252 114.38925781 -12.45577148 113.83979492 -13.19238281 113.27368164 C-34.55684359 96.60486585 -50.69325478 68.7935094 -55.12109375 41.76928711 C-55.41776487 39.16551909 -55.46164586 36.64829234 -55.43994141 34.02856445 C-55.43430176 33.14160889 -55.42866211 32.25465332 -55.42285156 31.34082031 C-55.41560059 30.67187744 -55.40834961 30.00293457 -55.40087891 29.3137207 C-54.76923828 28.96293457 -54.13759766 28.61214844 -53.48681641 28.25073242 C-40.24745212 20.88943603 -27.07648028 13.43991592 -14.02001953 5.75854492 C-13.07707031 5.20440918 -12.13412109 4.65027344 -11.16259766 4.0793457 C-9.92449341 3.34893066 -9.92449341 3.34893066 -8.66137695 2.60375977 C-7.54243042 1.96519043 -7.54243042 1.96519043 -6.40087891 1.3137207 C-5.74579346 0.88542969 -5.09070801 0.45713867 -4.41577148 0.01586914 C-2.40087891 -0.6862793 -2.40087891 -0.6862793 0 0 Z M-8.96337891 5.6262207 C-10.12464144 6.36555785 -11.28750164 7.10238951 -12.45166016 7.8371582 C-13.398396 8.43608887 -13.398396 8.43608887 -14.36425781 9.04711914 C-18.0812785 11.35878341 -21.86378741 13.55683483 -25.65087891 15.7512207 C-26.44872803 16.21359131 -27.24657715 16.67596191 -28.06860352 17.15234375 C-34.37873633 20.78119232 -40.77366836 24.23127615 -47.23388672 27.58496094 C-50.52833811 29.1424848 -50.52833811 29.1424848 -53.40087891 31.3137207 C-53.79561887 37.51875588 -52.79554259 42.45013125 -50.83837891 48.3137207 C-50.43184082 49.55593384 -50.43184082 49.55593384 -50.01708984 50.82324219 C-42.04011489 74.61969804 -30.73689585 96.92752606 -10.40087891 112.3137207 C-9.58361328 112.93762695 -8.76634766 113.5615332 -7.92431641 114.2043457 C-6.09337157 115.58887643 -4.2542946 116.9595058 -2.40087891 118.3137207 C22.33100896 106.57297327 36.60362605 81.0667693 45.45849609 56.24731445 C49.29515769 45.89075761 49.29515769 45.89075761 50.66162109 35.0637207 C50.64099609 33.8262207 50.62037109 32.5887207 50.59912109 31.3137207 C40.95757641 25.76315326 40.95757641 25.76315326 31.22412109 20.3762207 C26.62676077 17.8803165 22.042496 15.36225972 17.47412109 12.8137207 C16.44134033 12.23775146 16.44134033 12.23775146 15.38769531 11.65014648 C10.8756289 9.10607442 6.56827529 6.3889565 2.39599609 3.30981445 C-2.12469762 0.80377772 -5.14190022 3.14001749 -8.96337891 5.6262207 Z " fill="#E0E0E0" transform="translate(97.40087890625,34.686279296875)"/>
<path d="M0 0 C3.19094153 1.76002605 6.3258544 3.58962995 9.42578125 5.50390625 C14.80486597 8.78268168 20.23122969 11.94510044 25.73828125 15.00390625 C32.82772995 18.94855489 39.74409991 23.12464332 46.61328125 27.44140625 C45.87963384 50.55129981 30.71964025 79.57012275 14.11328125 95.25390625 C11.23779496 97.76995676 8.35166404 100.24785479 5.36328125 102.62890625 C4.38875 103.40621094 3.41421875 104.18351562 2.41015625 104.984375 C-0.38671875 106.44140625 -0.38671875 106.44140625 -2.8515625 105.99609375 C-6.03500572 104.04384351 -8.88304243 101.8171308 -11.69921875 99.37890625 C-12.27317383 98.88285889 -12.84712891 98.38681152 -13.43847656 97.87573242 C-30.60887788 82.81656495 -47.62464931 53.96421223 -50.19921875 30.87890625 C-49.38671875 27.44140625 -49.38671875 27.44140625 -47.87597656 26.1965332 C-47.22467773 25.81972412 -46.57337891 25.44291504 -45.90234375 25.0546875 C-45.17635986 24.62744385 -44.45037598 24.2002002 -43.70239258 23.76000977 C-42.93822021 23.32487061 -42.17404785 22.88973145 -41.38671875 22.44140625 C-40.29943481 21.80513306 -40.29943481 21.80513306 -39.19018555 21.15600586 C-36.90787996 19.82317162 -34.61698311 18.50615813 -32.32421875 17.19140625 C-18.26405317 9.33710519 -18.26405317 9.33710519 -4.78515625 0.56640625 C-2.38671875 -0.55859375 -2.38671875 -0.55859375 0 0 Z M-6.4921875 3.75 C-7.30324951 4.2454834 -8.11431152 4.7409668 -8.94995117 5.25146484 C-9.81595947 5.78852051 -10.68196777 6.32557617 -11.57421875 6.87890625 C-18.01185354 10.81447143 -24.47165184 14.66410935 -31.07421875 18.31640625 C-33.51401149 19.68737197 -35.95010547 21.06478858 -38.38671875 22.44140625 C-39.37285156 22.9828125 -40.35898437 23.52421875 -41.375 24.08203125 C-46.07481712 26.76180358 -46.07481712 26.76180358 -48.19921875 31.50390625 C-47.95882903 33.36681734 -47.95882903 33.36681734 -47.38671875 35.44140625 C-47.17402344 36.35664062 -46.96132813 37.271875 -46.7421875 38.21484375 C-44.39189576 46.9077036 -40.51951166 54.6282561 -36.36083984 62.55615234 C-34.95348565 65.27985888 -33.64815654 68.05139945 -32.32421875 70.81640625 C-29.51453965 76.42815013 -26.17878467 81.44954118 -22.38671875 86.44140625 C-21.75056641 87.32699219 -21.75056641 87.32699219 -21.1015625 88.23046875 C-16.03891346 94.76391797 -8.92438398 99.48890095 -2.38671875 104.44140625 C-0.24985775 103.62628871 -0.24985775 103.62628871 0.49584961 101.63134766 C1.81802729 99.04014516 3.41202207 97.4321379 5.4921875 95.40234375 C6.24822266 94.65726562 7.00425781 93.9121875 7.78320312 93.14453125 C8.57275391 92.37625 9.36230469 91.60796875 10.17578125 90.81640625 C11.74176016 89.28477456 13.30567064 87.7510243 14.8671875 86.21484375 C15.56142822 85.53856934 16.25566895 84.86229492 16.97094727 84.16552734 C18.6928462 82.52652074 18.6928462 82.52652074 19.61328125 80.44140625 C20.60328125 80.44140625 21.59328125 80.44140625 22.61328125 80.44140625 C37.53889177 55.95901575 37.53889177 55.95901575 43.61328125 28.44140625 C42.71802734 27.96574219 42.71802734 27.96574219 41.8046875 27.48046875 C33.59340564 23.06370198 25.57112983 18.34965942 17.55615234 13.58837891 C15.87034774 12.59316528 14.17432225 11.61530401 12.4765625 10.640625 C8.84535465 8.54006082 5.57743666 6.62122823 2.67578125 3.56640625 C1.65484375 2.51453125 1.65484375 2.51453125 0.61328125 1.44140625 C-2.75171184 1.44140625 -3.69153872 2.01811463 -6.4921875 3.75 Z " fill="#D1D1D1" transform="translate(97.38671875,41.55859375)"/>
<path d="M0 0 C6.41140757 2.73885372 12.47356336 7.95917805 16 14 C17.78643985 19.81747976 17.67765313 26.16024199 16 32 C13.86237718 35.35218124 11.31456754 36.90806482 8 39 C6.48749128 40.44505551 5.00731183 41.9247585 3.5625 43.4375 C2.39344331 44.64316121 1.21142206 45.83691398 0 47 C-0.33 47 -0.66 47 -1 47 C-1 42.05 -1 37.1 -1 32 C-0.34 32 0.32 32 1 32 C0.9278125 30.69546875 0.855625 29.3909375 0.78125 28.046875 C0.27893466 18.68822983 -0.1714901 9.37479232 0 0 Z " fill="#F5F5F5" transform="translate(97,90)"/>
<path d="M0 0 C0.66 0 1.32 0 2 0 C2 4.95 2 9.9 2 15 C1.34 15 0.68 15 0 15 C0.0721875 16.30453125 0.144375 17.6090625 0.21875 18.953125 C0.72106534 28.31177017 1.1714901 37.62520768 1 47 C-0.65511416 45.6207382 -2.30206006 44.23067856 -3.91015625 42.796875 C-5.96634018 40.9642048 -5.96634018 40.9642048 -8.24609375 39.453125 C-12.08829331 36.46703051 -14.06348207 33.72312699 -14.9609375 28.94140625 C-15.56649955 23.36064237 -15.78034925 17.83365543 -12.70507812 12.93896484 C-9.2487079 8.7644565 -5.18111784 5.42040981 -1 2 C-0.67 1.34 -0.34 0.68 0 0 Z " fill="#020202" transform="translate(94,52)"/>
<path d="M0 0 C6.78901303 3.39450652 13.05591458 8.40474236 17 15 C17.97057663 18.18046299 18.20244474 21.12248484 18.1875 24.4375 C18.18782227 25.19417969 18.18814453 25.95085937 18.18847656 26.73046875 C17.91227007 30.9124945 17.0236858 33.47440927 14.17578125 36.59765625 C11 39 11 39 8.97216797 38.77392578 C5.65834073 37.47350088 4.13605204 35.84194188 2 33 C1.40682846 29.8677916 1.52470368 26.86077604 1.6875 23.6875 C1.71005859 22.85154297 1.73261719 22.01558594 1.75585938 21.15429688 C1.8144939 19.10208851 1.90416785 17.05080798 2 15 C1.34 15 0.68 15 0 15 C0 10.05 0 5.1 0 0 Z " fill="#F1F1F1" transform="translate(96,52)"/>
<path d="M0 0 C7.98409631 3.71466849 15.46169774 10.4707734 20 18 C21.18959543 21.89835937 21.4660836 25.49954502 21.4375 29.5625 C21.43459961 30.4896582 21.43169922 31.41681641 21.42871094 32.37207031 C21.07872269 37.53580064 20.09259723 40.44009298 16.41015625 44.15234375 C15.29423775 45.12593075 14.16414055 46.08461891 13 47 C13.67591187 47.79096069 13.67591187 47.79096069 14.36547852 48.59790039 C15.44026693 49.85563151 16.51505534 51.11336263 17.58984375 52.37109375 C18.36795695 53.26991149 19.15936528 54.15936528 20 55 C21.61819269 62.14098916 22.12996442 69.9549951 20 77 C15.49998446 83.87110524 9.09959882 89.15237735 2.74414062 94.2644043 C2.16857422 94.83715088 1.59300781 95.40989746 1 96 C1 96.99 1 97.98 1 99 C0.34 99 -0.32 99 -1 99 C-0.95020867 93.34038587 -0.58675318 90.06998717 3.30859375 85.83984375 C4.66465752 84.51797752 6.04168454 83.21731971 7.4375 81.9375 C8.13166016 81.26267578 8.82582031 80.58785156 9.54101562 79.89257812 C14.66161664 75 14.66161664 75 17 75 C18.04035844 64.42484669 18.04035844 64.42484669 14.48046875 54.73974609 C10.81252859 50.59053118 6.69735033 46.98139999 2.36108398 43.54541016 C1 42 1 42 1 38 C3.27292941 39.01889939 4.83024561 39.80902631 6.5 41.6875 C7.91112661 43.22346302 7.91112661 43.22346302 9.9375 42.9375 C12.7462804 41.66078163 14.07390987 40.44539813 16 38 C17.51280594 31.42665737 18.3386596 23.77260066 14.640625 17.80712891 C10.63462623 12.94089703 5.69413796 7.84706898 0 5 C0 3.35 0 1.7 0 0 Z " fill="#101010" transform="translate(96,47)"/>
<path d="M0 0 C3.03841194 1.70910672 4.81264029 3.373851 7 6.125 C7.60448761 9.25462705 7.47525564 12.26501692 7.3125 15.4375 C7.27866211 16.69143555 7.27866211 16.69143555 7.24414062 17.97070312 C7.1855061 20.02291149 7.09583215 22.07419202 7 24.125 C7.66 24.125 8.32 24.125 9 24.125 C9 29.075 9 34.025 9 39.125 C7.3653643 37.76860016 5.74024477 36.39958344 4.15625 34.984375 C2.00747962 33.06940543 2.00747962 33.06940543 -0.46875 31.390625 C-3.89235018 28.68208056 -6.51419763 26.3537118 -7.47607422 21.94091797 C-7.75643217 19.4024871 -7.86170367 16.92861975 -7.875 14.375 C-7.88265381 13.54653564 -7.89030762 12.71807129 -7.89819336 11.86450195 C-7.72782016 7.47083071 -7.37630102 5.60051866 -4.5703125 2.0546875 C-2 0.125 -2 0.125 0 0 Z " fill="#040404" transform="translate(87,97.875)"/>
<path d="M0 0 C2.02516373 3.0377456 2.68710456 5.1944969 3.625 8.6875 C5.89818434 16.30436394 9.34311834 23.09410466 13.02587891 30.11474609 C14.4332331 32.83845263 15.73856221 35.6099932 17.0625 38.375 C22.50621463 49.26242926 29.62746388 58.53392216 39.3125 65.875 C39.95767578 66.37257813 40.60285156 66.87015625 41.26757812 67.3828125 C42.84046574 68.59451851 44.4195916 69.79811973 46 71 C46.49113281 70.319375 46.98226562 69.63875 47.48828125 68.9375 C49.54799215 66.52863127 51.43121358 64.73996502 53.85546875 62.75 C63.06463695 55.10539829 63.06463695 55.10539829 67.26953125 44.28125 C67.62898949 39.16895509 67.49382133 34.09885395 67 29 C67.33 29 67.66 29 68 29 C68.16795811 32.10409821 68.33414323 35.20828886 68.5 38.3125 C68.57154297 39.63411133 68.57154297 39.63411133 68.64453125 40.98242188 C68.71220703 42.25375977 68.71220703 42.25375977 68.78125 43.55078125 C68.82314453 44.33106689 68.86503906 45.11135254 68.90820312 45.9152832 C69.14942541 51.39346706 67.75262753 52.82074029 64.15625 56.79296875 C60.62422089 60.4081797 56.84418584 63.72241752 53 67 C55.475 66.01 55.475 66.01 58 65 C54.83047153 68.26008643 51.60062011 71.22237877 48 74 C43.48151223 72.53295852 40.22872737 70.00346837 36.6875 66.9375 C36.11354492 66.44145264 35.53958984 65.94540527 34.94824219 65.43432617 C18.27964194 50.81525945 4.95305713 26.68261372 0 5 C-0.05306634 3.33417836 -0.06863945 1.66525265 0 0 Z " fill="#CDCDCD" transform="translate(49,74)"/>
<path d="M0 0 C4.8274799 1.41292095 8.7162359 3.42974154 13 6 C13.71612141 13.01798979 11.63040945 18.70131638 9.2890625 25.21875 C7.93259993 28.96675692 7.93259993 28.96675692 7.16015625 32.8203125 C5.89484641 38.072494 3.35472514 42.64130433 0.8125 47.375 C0.31709717 48.30530029 -0.17830566 49.23560059 -0.6887207 50.1940918 C-13.7484028 74.40524051 -13.7484028 74.40524051 -25 78 C-25.99 78 -26.98 78 -28 78 C-27.14277344 77.24976563 -26.28554687 76.49953125 -25.40234375 75.7265625 C-5.13792289 57.71473194 5.49090613 32.91639219 12 7 C11.07960937 6.71253906 10.15921875 6.42507812 9.2109375 6.12890625 C5.67784371 4.88673581 3.00500744 3.21798168 0 1 C0 0.67 0 0.34 0 0 Z " fill="#868686" transform="translate(129,63)"/>
<path d="M0 0 C1.32 0 2.64 0 4 0 C4 18.15 4 36.3 4 55 C2.68 55 1.36 55 0 55 C0 36.85 0 18.7 0 0 Z " fill="#898989" transform="translate(94,67)"/>
<path d="M0 0 C2.21110674 3.31666011 2.9327648 6.03766168 4 9.875 C7.37347266 21.34346304 12.5261629 32.74696106 18.8046875 42.92578125 C20 45 20 45 20 48 C17 47 17 47 15.09765625 43.6484375 C14.40915508 42.22882001 13.7311785 40.80406149 13.0625 39.375 C12.38874434 37.96517601 11.71297389 36.55631306 11.03515625 35.1484375 C10.6997583 34.44879883 10.36436035 33.74916016 10.01879883 33.02832031 C9.06759776 31.13457997 8.03884996 29.32681179 6.953125 27.5078125 C4.72097851 23.66954933 3.17703501 19.67368457 1.6875 15.5 C1.41099609 14.77941406 1.13449219 14.05882813 0.84960938 13.31640625 C-0.9145594 8.40161868 -1.14839412 5.10397388 0 0 Z " fill="#E6E6E6" transform="translate(45,77)"/>
<path d="M0 0 C0.33 0 0.66 0 1 0 C1.16795811 3.10409821 1.33414323 6.20828886 1.5 9.3125 C1.54769531 10.19357422 1.59539062 11.07464844 1.64453125 11.98242188 C1.68964844 12.82998047 1.73476562 13.67753906 1.78125 14.55078125 C1.82314453 15.33106689 1.86503906 16.11135254 1.90820312 16.9152832 C2.14857435 22.37413931 0.79746947 23.78596344 -2.796875 27.73828125 C-8.06288506 33.14434476 -13.39956401 38.27697827 -20 42 C-18.58323598 38.65373396 -16.94069089 36.88987622 -14.12109375 34.62890625 C-4.31562193 26.57289068 -4.31562193 26.57289068 0.34375 15.2109375 C0.7023564 10.11906861 0.54459262 5.0731529 0 0 Z " fill="#DEDEDE" transform="translate(116,103)"/>
<path d="M0 0 C1.32 0 2.64 0 4 0 C4.23135477 11.22070643 3.83150372 21.91286142 2 33 C1.67 33 1.34 33 1 33 C-0.12520495 21.98906587 -0.09920291 11.05561292 0 0 Z " fill="#6E6E6E" transform="translate(94,67)"/>
<path d="M0 0 C3.62793127 1.20931042 4.13221152 2.31002683 6.3125 5.375 C11.6082909 12.23478149 19.17829486 19.08914743 27 23 C27.3403125 22.071875 27.3403125 22.071875 27.6875 21.125 C29.40554645 18.34340099 30.90995099 17.90440459 34 17 C34.99 17 35.98 17 37 17 C33.7 19.64 30.4 22.28 27 25 C22.38773397 23.15509359 19.3567208 21.11099717 15.6875 17.9375 C15.1193457 17.45087891 14.55119141 16.96425781 13.96582031 16.46289062 C2.01856016 6.05568047 2.01856016 6.05568047 0 0 Z " fill="#C1C1C1" transform="translate(70,123)"/>
<path d="M0 0 C7.56390702 2.25804871 14.21899579 6.47409911 20.1875 11.625 C23.57666869 14.48696467 27.1979695 16.73229146 31 19 C30.34 19.33 29.68 19.66 29 20 C25.4729569 18.47470036 22.19834363 16.42356574 18.875 14.5 C17.94945313 13.98179688 17.02390625 13.46359375 16.0703125 12.9296875 C10.16782084 9.54492534 4.77398985 5.88818382 0 1 C0 0.67 0 0.34 0 0 Z " fill="#929292" transform="translate(98,43)"/>
<path d="M0 0 C0.7734375 0.4228125 1.546875 0.845625 2.34375 1.28125 C3.436875 1.8175 4.53 2.35375 5.65625 2.90625 C6.543125 3.36 7.43 3.81375 8.34375 4.28125 C7.35375 5.76625 7.35375 5.76625 6.34375 7.28125 C5.456875 6.600625 4.57 5.92 3.65625 5.21875 C0.63310835 3.02003032 0.63310835 3.02003032 -2.0625 3.5 C-4.797044 4.32365783 -7.00344841 5.4087237 -9.46875 6.84375 C-10.25894531 7.29878906 -11.04914063 7.75382812 -11.86328125 8.22265625 C-12.45496094 8.57199219 -13.04664062 8.92132813 -13.65625 9.28125 C-13.65625 7.96125 -13.65625 6.64125 -13.65625 5.28125 C-11.94053776 4.21756851 -10.20801399 3.18096828 -8.46875 2.15625 C-7.50582031 1.57617188 -6.54289062 0.99609375 -5.55078125 0.3984375 C-2.65625 -0.71875 -2.65625 -0.71875 0 0 Z " fill="#D8D8D8" transform="translate(97.65625,34.71875)"/>
<path d="M0 0 C-3.48004102 7.6998009 -10.76577153 12.97771003 -18 17 C-18.66 17 -19.32 17 -20 17 C-18.45888199 12.81424739 -15.68342964 11.04049256 -12.125 8.5 C-9.13172611 6.35249146 -6.33481495 4.33829054 -3.7421875 1.71875 C-2 0 -2 0 0 0 Z " fill="#DCDCDC" transform="translate(121,134)"/>
<path d="M0 0 C0.99 0.33 1.98 0.66 3 1 C1.26028544 8.97369173 -1.55929786 16.11691168 -6 23 C-7.35804499 19.94049635 -6.90725778 18.72238754 -5.8203125 15.46875 C-5.26645623 14.14108496 -4.70092997 12.8182397 -4.125 11.5 C-1.66218354 5.88487804 -1.66218354 5.88487804 0 0 Z " fill="#D9D9D9" transform="translate(144,84)"/>
<path d="M0 0 C2.12600304 3.18900456 3.02136239 5.90414569 4.125 9.5625 C4.47820313 10.71878906 4.83140625 11.87507813 5.1953125 13.06640625 C6 16 6 16 6 18 C5.01 18 4.02 18 3 18 C-1.77676538 6.66287016 -1.77676538 6.66287016 0 0 Z " fill="#CDCDCD" transform="translate(45,77)"/>
<path d="M0 0 C3.01031699 0.44597289 4.0717594 1.06609418 6.375 3.1875 C7.24125 3.785625 8.1075 4.38375 9 5 C12.28104472 4.37963682 12.28104472 4.37963682 15 3 C15.33 3.66 15.66 4.32 16 5 C14.35 6.32 12.7 7.64 11 9 C7.03935893 7.25731793 3.25563451 4.85325271 0 2 C0 1.34 0 0.68 0 0 Z " fill="#D9D9D9" transform="translate(86,147)"/>
<path d="M0 0 C-2.2639961 2.46717524 -4.59060244 4.10134139 -7.5 5.75 C-8.66015625 6.42289063 -8.66015625 6.42289063 -9.84375 7.109375 C-12 8 -12 8 -15 7 C-12.7360039 4.53282476 -10.40939756 2.89865861 -7.5 1.25 C-6.7265625 0.80140625 -5.953125 0.3528125 -5.15625 -0.109375 C-3 -1 -3 -1 0 0 Z " fill="#E5E5E5" transform="translate(84,43)"/>
<path d="M0 0 C3 1 3 1 4.60546875 4.16015625 C5.14390274 5.45638622 5.67083429 6.75744068 6.1875 8.0625 C6.46013672 8.72572266 6.73277344 9.38894531 7.01367188 10.07226562 C7.6856086 11.71084817 8.34409628 13.35493403 9 15 C8.01 15.33 7.02 15.66 6 16 C0.44419134 5.62642369 0.44419134 5.62642369 0 0 Z " fill="#D9D9D9" transform="translate(49,95)"/>
<path d="M0 0 C0.99 0.99 1.98 1.98 3 3 C0.69 5.97 -1.62 8.94 -4 12 C-4.99 11.34 -5.98 10.68 -7 10 C-6.57847656 9.44570312 -6.15695313 8.89140625 -5.72265625 8.3203125 C-5.17480469 7.59585938 -4.62695312 6.87140625 -4.0625 6.125 C-3.51722656 5.40570313 -2.97195312 4.68640625 -2.41015625 3.9453125 C-0.96035376 2.05642921 -0.96035376 2.05642921 0 0 Z " fill="#D4D4D4" transform="translate(126,123)"/>
<path d="M0 0 C2.9156164 3.54039134 5.50127818 7.1626772 8 11 C7.34 11.66 6.68 12.32 6 13 C4.79723305 11.59627198 3.61319481 10.17647903 2.4375 8.75 C1.44556641 7.56664062 1.44556641 7.56664062 0.43359375 6.359375 C-1 4 -1 4 -0.71484375 1.703125 C-0.47894531 1.14109375 -0.24304688 0.5790625 0 0 Z " fill="#DADADA" transform="translate(65,123)"/>
<path d="M0 0 C0.66 0.66 1.32 1.32 2 2 C0.88625 2.515625 -0.2275 3.03125 -1.375 3.5625 C-3.59594075 4.80532947 -4.76485898 5.52870876 -5.91015625 7.82421875 C-6.52593403 9.95229588 -6.52593403 9.95229588 -7 13 C-7.33 13 -7.66 13 -8 13 C-8.70466321 7.80310881 -8.70466321 7.80310881 -8 5 C-5.59591596 2.78043995 -2.95606811 1.37246019 0 0 Z " fill="#B8B8B8" transform="translate(56,64)"/>
<path d="M0 0 C0.99 0.33 1.98 0.66 3 1 C1.25 8.75 1.25 8.75 -1 11 C-1.66 11 -2.32 11 -3 11 C-2.01 7.37 -1.02 3.74 0 0 Z " fill="#CACACA" transform="translate(144,84)"/>
<path d="M0 0 C3.40312738 1.05875074 6.01353231 2.00902154 9 4 C9 4.66 9 5.32 9 6 C5.21213403 5.4739075 2.82847776 4.61896089 0 2 C0 1.34 0 0.68 0 0 Z " fill="#E7E7E7" transform="translate(105,40)"/>
<path d="M0 0 C0.66 0.33 1.32 0.66 2 1 C-2.455 4.465 -2.455 4.465 -7 8 C-7.33 7.01 -7.66 6.02 -8 5 C-5.77077045 2.77077045 -3.90864722 2.11871047 -1 1 C-0.67 0.67 -0.34 0.34 0 0 Z " fill="#A7A7A7" transform="translate(105,139)"/>
<path d="M0 0 C-1.44077046 3.36179774 -3.24750021 5.59156268 -6 8 C-6.66 8 -7.32 8 -8 8 C-6.48291727 4.46014029 -4.24676932 0 0 0 Z " fill="#EEEEEE" transform="translate(121,134)"/>
<path d="M0 0 C2.4294516 3.6441774 2.16179575 5.71241272 2 10 C1.34 10 0.68 10 0 10 C-1.125 3.375 -1.125 3.375 0 0 Z " fill="#C4C4C4" transform="translate(45,77)"/>
<path d="M0 0 C0 0.99 0 1.98 0 3 C-1.98 3.99 -3.96 4.98 -6 6 C-6 4.68 -6 3.36 -6 2 C-2.25 0 -2.25 0 0 0 Z " fill="#DEDEDE" transform="translate(90,38)"/>
<path d="M0 0 C2.31 1.98 4.62 3.96 7 6 C6.34 6.66 5.68 7.32 5 8 C2.5 5.6875 2.5 5.6875 0 3 C0 2.01 0 1.02 0 0 Z " fill="#EDEDED" transform="translate(72,134)"/>
</svg>
